<?xml version="1.0" standalone="no"?>
<!DOCTYPE svg PUBLIC "-//W3C//DTD SVG 20010904//EN"
 "http://www.w3.org/TR/2001/REC-SVG-20010904/DTD/svg10.dtd">
<svg version="1.0" xmlns="http://www.w3.org/2000/svg"
 width="700.000000pt" height="700.000000pt" viewBox="0 0 700.000000 700.000000"
 preserveAspectRatio="xMidYMid meet">
<metadata>
Created by potrace 1.11, written by Peter Selinger 2001-2013
</metadata>
<g transform="translate(0.000000,700.000000) scale(0.100000,-0.100000)"
fill="#000000" stroke="none">
<path d="M0 3500 l0 -3500 3500 0 3500 0 0 3500 0 3500 -3500 0 -3500 0 0
-3500z m3637 2392 c14 -46 40 -100 56 -120 46 -58 105 -162 125 -222 11 -30
29 -71 41 -90 18 -30 21 -50 21 -137 0 -62 -4 -103 -10 -103 -5 0 -10 -11 -10
-24 0 -36 -41 -89 -77 -98 -18 -5 -35 -13 -39 -20 -5 -7 -3 -8 6 -3 9 5 11 4
6 -4 -4 -6 -35 -30 -68 -53 -82 -55 -166 -142 -225 -230 l-48 -73 0 -125 c0
-173 8 -189 134 -274 53 -36 106 -74 119 -84 l23 -18 -125 -83 c-79 -52 -130
-80 -138 -75 -7 4 -31 21 -53 39 -22 17 -68 48 -102 69 -52 31 -66 46 -90 94
-25 52 -28 69 -31 183 -4 120 -3 128 22 178 71 138 154 228 314 336 87 59 88
59 113 127 30 82 26 170 -12 254 -65 144 -101 212 -140 258 -27 34 -47 73 -66
135 -15 50 -40 104 -60 130 -18 24 -33 47 -33 50 0 4 57 40 128 82 l127 75 33
-46 c18 -25 44 -82 59 -128z m-1184 -24 c19 -29 45 -87 58 -128 12 -41 30 -84
40 -95 39 -45 110 -166 132 -226 13 -35 34 -82 46 -104 17 -33 21 -57 21 -137
0 -54 -4 -100 -10 -103 -5 -3 -10 -16 -11 -28 -1 -39 -32 -78 -73 -92 -21 -8
-44 -19 -50 -25 -8 -8 -7 -9 7 -5 34 14 16 -5 -40 -41 -106 -66 -209 -180
-272 -299 -27 -52 -29 -213 -3 -290 18 -52 14 -49 177 -163 41 -29 75 -57 75
-61 0 -10 -226 -161 -240 -161 -6 0 -34 17 -63 38 -29 21 -76 53 -105 71 -97
62 -126 136 -120 315 l3 112 50 83 c57 95 153 192 263 265 95 64 117 87 136
146 17 53 22 195 7 205 -5 3 -24 42 -41 88 -34 87 -86 180 -130 231 -15 17
-39 69 -55 116 -15 47 -40 103 -55 126 -16 22 -30 46 -32 53 -2 10 222 158
243 160 4 1 22 -23 42 -51z m2230 0 c19 -29 45 -87 58 -128 12 -41 30 -84 40
-95 39 -45 110 -166 132 -226 13 -35 34 -82 46 -104 17 -33 21 -57 21 -137 0
-54 -4 -100 -10 -103 -5 -3 -10 -16 -11 -28 -1 -39 -32 -78 -73 -92 -21 -8
-44 -19 -50 -25 -8 -8 -7 -9 7 -5 34 14 16 -5 -40 -41 -106 -66 -209 -180
-272 -299 -27 -52 -29 -213 -3 -290 18 -52 14 -49 177 -163 41 -29 75 -57 75
-61 0 -10 -226 -161 -240 -161 -6 0 -34 17 -63 38 -29 21 -76 53 -105 71 -97
62 -126 136 -120 315 l3 112 50 83 c57 95 153 192 263 265 95 64 117 87 136
146 17 53 22 195 7 205 -5 3 -24 42 -41 88 -34 87 -86 180 -130 231 -15 17
-39 69 -55 116 -15 47 -40 103 -55 126 -16 22 -30 46 -32 53 -2 10 222 158
243 160 4 1 22 -23 42 -51z m1010 -2365 c16 -254 3 -420 -48 -610 -50 -188
-156 -410 -278 -581 -69 -96 -214 -262 -257 -294 l-30 -22 0 -318 0 -318
-1580 0 -1580 0 0 311 0 311 -106 111 c-166 175 -293 366 -383 578 -111 263
-147 505 -124 842 l6 97 2187 0 2187 0 6 -107z"/>
<path d="M1553 3253 c11 -212 67 -410 173 -612 89 -168 188 -297 346 -448 39
-37 80 -76 90 -85 16 -17 18 -39 18 -258 l0 -240 1320 0 1320 0 0 240 0 240
138 137 c154 153 244 273 327 437 100 198 151 383 162 589 l6 107 -1953 0
-1953 0 6 -107z"/>
</g>
</svg>
