<?xml version="1.0" encoding="UTF-8" standalone="no"?>
<!-- Created with Inkscape (http://www.inkscape.org/) -->

<svg
   xmlns:dc="http://purl.org/dc/elements/1.1/"
   xmlns:cc="http://creativecommons.org/ns#"
   xmlns:rdf="http://www.w3.org/1999/02/22-rdf-syntax-ns#"
   xmlns:svg="http://www.w3.org/2000/svg"
   xmlns="http://www.w3.org/2000/svg"
   xmlns:sodipodi="http://sodipodi.sourceforge.net/DTD/sodipodi-0.dtd"
   xmlns:inkscape="http://www.inkscape.org/namespaces/inkscape"
   width="68.035713mm"
   height="68.035713mm"
   viewBox="0 0 68.035713 68.035713"
   version="1.1"
   id="svg8"
   inkscape:version="0.92.2 5c3e80d, 2017-08-06"
   sodipodi:docname="logo.svg">
  <defs
     id="defs2" />
  <sodipodi:namedview
     id="base"
     pagecolor="#ffffff"
     bordercolor="#666666"
     borderopacity="1.0"
     inkscape:pageopacity="0.0"
     inkscape:pageshadow="2"
     inkscape:zoom="1.42"
     inkscape:cx="113.71355"
     inkscape:cy="121.41576"
     inkscape:document-units="mm"
     inkscape:current-layer="layer1"
     showgrid="false"
     inkscape:window-width="1280"
     inkscape:window-height="702"
     inkscape:window-x="-1"
     inkscape:window-y="0"
     inkscape:window-maximized="0"
     fit-margin-top="0"
     fit-margin-left="0"
     fit-margin-right="0"
     fit-margin-bottom="0" />
  <metadata
     id="metadata5">
    <rdf:RDF>
      <cc:Work
         rdf:about="">
        <dc:format>image/svg+xml</dc:format>
        <dc:type
           rdf:resource="http://purl.org/dc/dcmitype/StillImage" />
        <dc:title></dc:title>
      </cc:Work>
    </rdf:RDF>
  </metadata>
  <g
     inkscape:label="Layer 1"
     inkscape:groupmode="layer"
     id="layer1"
     transform="translate(-70.982147,-57.363094)">
    <rect
       id="rect10"
       width="68.035713"
       height="68.035713"
       x="70.982147"
       y="57.363094"
       style="fill:#770082;fill-opacity:1;stroke-width:0.26458332" />
    <path
       style="fill:#770082;fill-opacity:1;stroke:#ffffff;stroke-width:2.43732166;stroke-miterlimit:4;stroke-dasharray:none;stroke-opacity:1"
       d="m 84.89761,91.540543 a 20.193695,17.38751 0 0 0 -0.09147,1.575615 20.193695,17.38751 0 0 0 6.094201,12.444722 v 5.4069 h 28.199309 v -5.42757 a 20.193695,17.38751 0 0 0 6.0942,-12.424052 20.193695,17.38751 0 0 0 -0.0992,-1.575615 z"
       id="rect822"
       inkscape:connector-curvature="0" />
    <g
       id="g847"
       transform="translate(3.2375232,0.28147163)">
      <path
         inkscape:connector-curvature="0"
         d="m 90.214671,87.168503 c -0.272578,-0.06306 -0.395555,-0.382376 -0.659519,-0.444679 -0.145112,-0.15959 -0.319619,-0.224315 -0.469032,-0.379235 -0.163135,-0.03903 -0.330075,-0.155303 -0.439911,-0.28883 -0.03235,-0.02052 -0.06658,0.02653 -0.09707,0.01389 -0.06724,-0.02789 -0.242274,-0.170729 -0.287759,-0.224568 -0.139284,-0.01349 -0.270465,-0.203468 -0.339327,-0.322477 -0.149554,-0.12025 -0.243094,-0.383806 -0.311516,-0.571905 -0.08546,-0.240829 -0.161851,-0.479642 -0.204066,-0.734613 -0.03648,-0.270724 -0.03375,-0.543528 -0.03769,-0.816218 -1.56e-4,-0.299516 0.0016,-0.599267 0.0037,-0.898902 0.0212,-0.277644 0.06124,-0.582771 0.209314,-0.816318 0.1025,-0.240528 0.229676,-0.462581 0.372442,-0.679169 0.192389,-0.210544 0.309788,-0.475969 0.46262,-0.717751 0.177859,-0.133668 0.311764,-0.326815 0.483581,-0.470941 0.172101,-0.183334 0.328758,-0.388955 0.541296,-0.518368 0.838679,-0.836997 1.9603,-1.333091 2.930444,-1.938053 -0.772017,0.481061 -3.124742,1.847077 -2.316052,1.443184 0.882515,-0.440765 1.692809,-1.035028 2.538348,-1.554208 0.03274,-0.0201 0.129064,-0.0839 0.09643,-0.0636 -3.523692,2.192779 -2.996723,1.879678 -2.133783,1.299793 0.896129,-0.675597 0.318223,-0.244996 2.620827,-1.661402 0.7889,-0.485279 -3.124448,1.998983 -2.353447,1.480924 0.824034,-0.553696 1.692172,-1.027925 2.512612,-1.587872 0.746884,-0.509745 -2.902326,2.121254 -2.300132,1.421401 6.350747,-4.029989 0.471536,-0.298154 0.159112,-0.103963 -0.01893,0.01176 0.02376,-0.04197 0.04258,-0.05396 0.833008,-0.53059 1.693016,-1.012163 2.509748,-1.571763 0.749813,-0.51375 -2.938994,2.105097 -2.316149,1.42008 0.01913,-0.01375 0.04457,-0.02061 0.05741,-0.04126 0.01863,-0.02994 0.01717,-0.07035 0.03208,-0.102647 0.04775,-0.103372 0.130885,-0.188192 0.190245,-0.285001 0.0713,-0.147199 -0.0048,-0.371352 0.12731,-0.474252 0.08443,-0.08817 0.09362,-0.214813 0.103682,-0.335113 0.0043,-0.138251 0.0031,-0.276586 0.0013,-0.414883 -0.0039,-0.169308 0.0064,-0.33932 -0.0014,-0.508408 0.0024,-0.166445 0.01622,-0.329165 -0.02867,-0.489185 -0.138389,-0.168064 -0.226543,-0.385481 -0.32076,-0.587281 -0.09315,-0.227609 -0.179461,-0.458703 -0.267827,-0.688877 -0.07409,-0.188179 -0.107193,-0.408733 -0.232688,-0.567983 -0.09981,-0.179578 -0.217004,-0.344754 -0.318167,-0.522434 -0.08293,-0.137 -0.177873,-0.267119 -0.265416,-0.403204 -0.09358,-0.109602 -0.152203,-0.242796 -0.251992,-0.345142 -0.09138,-0.07936 -0.143694,-0.1786 -0.239788,-0.254556 -0.105313,-0.07608 -0.124514,-0.230953 -0.162437,-0.35096 -0.03213,-0.111048 -0.04996,-0.208114 -0.108133,-0.306343 -0.05942,-0.124308 -0.106004,-0.239327 -0.115774,-0.381317 -0.06818,-0.185406 -0.13331,-0.372473 -0.171881,-0.568114 -0.03512,-0.134885 -0.0897,-0.327234 -0.206481,-0.402671 -0.09817,-0.105531 -0.194599,-0.21445 -0.260351,-0.346393 -0.05913,0.04408 -0.149626,-0.20452 -0.176231,-0.261432 -0.04155,-0.09019 -0.0213,-0.03918 -0.05701,-0.154715 0,0 2.493485,-1.479383 2.493485,-1.479383 v 0 c 0.015,0.07059 0.0043,0.03516 0.03335,0.105838 0.08874,0.190369 0.05521,0.0983 0.17232,0.254197 0.05051,0.100955 0.14191,0.171852 0.20587,0.262405 0.141744,0.166475 0.239757,0.370835 0.304498,0.586381 0.0069,0.181394 0.08225,0.337196 0.148543,0.501612 0.04641,0.113013 0.0092,0.239292 0.09529,0.33452 0.05036,0.09876 0.139163,0.220204 0.114055,0.330026 0.04125,0.0849 0.0383,0.178323 0.104584,0.239237 0.08919,0.09066 0.164404,0.193885 0.251303,0.286923 0.102077,0.125159 0.183714,0.265827 0.284806,0.392246 0.07807,0.144172 0.180083,0.268456 0.257278,0.411944 0.100721,0.168879 0.205074,0.333502 0.305739,0.502209 0.123267,0.192774 0.203631,0.413137 0.263968,0.637383 0.0835,0.223783 0.174635,0.441957 0.25151,0.668183 0.104746,0.214901 0.211641,0.426587 0.348742,0.619945 0.0708,0.193886 0.09464,0.367195 0.08011,0.57647 -0.0072,0.168387 0.0028,0.33759 0.0011,0.506152 1.8e-4,0.1412 0.0033,0.282352 0.0056,0.423508 0.0039,0.167971 -0.0065,0.330477 -0.03913,0.493766 -0.06182,0.184293 0.0192,0.03395 -0.113285,0.08481 -0.07527,0.0289 -0.02979,0.253848 -0.04655,0.311568 -0.01091,0.08288 -0.04523,0.240133 -0.08465,0.308675 -0.07636,0.132732 -0.177354,0.01786 -0.144519,0.241921 -0.699571,0.871826 0.616475,-0.755551 -2.537121,1.671992 -0.74195,0.571132 1.565073,-1.006595 2.350285,-1.504947 0.01991,-0.01263 -0.03402,0.0343 -0.05369,0.04736 -0.823423,0.546686 -1.785137,0.898811 -2.475056,1.631525 -0.646068,0.686141 1.55982,-0.991872 2.339731,-1.487807 -0.867504,0.508597 -1.830373,1.071905 -2.548073,1.645906 -0.724472,0.579416 3.080052,-2.020176 2.328395,-1.4831 -0.579178,0.413835 -5.815403,3.684336 -0.156904,0.125949 0.03778,-0.02376 -0.07419,0.04999 -0.111282,0.07499 -0.203445,0.173881 0.0326,-0.01577 -0.205949,0.135816 -0.836494,0.531548 -1.665776,1.076422 -2.503489,1.605706 -0.0333,0.02104 -0.141312,0.06562 -0.108128,0.04437 0.768549,-0.492254 3.082822,-1.952992 2.315623,-1.458262 -0.835932,0.539049 -1.681218,1.060821 -2.521825,1.591234 0.771461,-0.486296 1.542925,-0.972588 2.314387,-1.458882 -0.05674,0.03849 -0.124144,0.05754 -0.178097,0.100497 -0.04477,0.03564 -0.100331,0.137494 -0.150134,0.171297 -0.02893,0.01964 -0.06449,0.02418 -0.09674,0.03626 -0.107951,0.176878 -0.241054,0.179143 -0.375162,0.324239 -0.02786,0.03015 -0.04323,0.07219 -0.07135,0.102054 -0.02741,0.02912 -0.06228,0.04861 -0.09342,0.07291 -0.01736,0.02772 -0.284136,0.348929 -0.291761,0.354453 -0.03383,0.0245 -0.08684,0.008 -0.116942,0.03772 -0.03499,0.03451 -0.04123,0.09237 -0.06184,0.138551 -0.287606,0.07367 -0.283633,0.445625 -0.488706,0.63721 -0.07075,0.09135 -0.158261,0.172505 -0.205983,0.281909 -0.02084,0.04777 -0.02154,0.107335 -0.05282,0.147842 -0.185066,0.239658 -0.04004,-0.201534 -0.138113,0.203811 -0.160806,0.419793 0.06034,-0.08591 -0.138189,0.194947 -0.09047,0.127984 -0.04961,0.354961 -0.137813,0.490108 0.0013,0.297972 0.0013,0.596006 0.0014,0.893874 -0.0014,0.257902 0.0024,0.516552 0.02214,0.773582 0.02798,0.239392 0.0908,0.465192 0.185088,0.684313 0.04811,0.190054 0.147548,0.357802 0.27633,0.495988 0.09389,0.10554 0.195998,0.179639 0.307778,0.260427 0.136781,0.04896 0.273741,0.13065 0.3886,0.220178 0.143396,0.08819 0.276657,0.188703 0.422103,0.273607 0.138464,0.104748 0.283385,0.201892 0.421443,0.306229 0.25337,0.159168 0.446264,0.414225 0.722563,0.540357 0,0 -2.416005,1.606931 -2.416005,1.606931 z"
         id="path838"
         style="fill:#fffff3;fill-opacity:1;stroke:none;stroke-width:1.9355284;stroke-miterlimit:4;stroke-dasharray:none;stroke-opacity:1" />
      <path
         style="fill:#fffff3;fill-opacity:1;stroke:none;stroke-width:1.9355284;stroke-miterlimit:4;stroke-dasharray:none;stroke-opacity:1"
         id="path840"
         d="m 101.19206,85.761144 c -0.27257,-0.06306 -0.39555,-0.382376 -0.65951,-0.444679 -0.14512,-0.15959 -0.31962,-0.224315 -0.46904,-0.379235 -0.163132,-0.03903 -0.330072,-0.155303 -0.439907,-0.28883 -0.03235,-0.02052 -0.06658,0.02653 -0.09707,0.01389 -0.06724,-0.02789 -0.242274,-0.170729 -0.287759,-0.224568 -0.139284,-0.01349 -0.270465,-0.203468 -0.339327,-0.322477 -0.149554,-0.12025 -0.243094,-0.383806 -0.311516,-0.571905 -0.08546,-0.240829 -0.161851,-0.479642 -0.204066,-0.734613 -0.03648,-0.270724 -0.03375,-0.543528 -0.03769,-0.816218 -1.56e-4,-0.299516 0.0016,-0.599267 0.0037,-0.898902 0.0212,-0.277644 0.06124,-0.582771 0.209314,-0.816318 0.1025,-0.240528 0.229676,-0.462581 0.372442,-0.679169 0.192389,-0.210544 0.309788,-0.475969 0.46262,-0.717751 0.177859,-0.133668 0.311764,-0.326815 0.483577,-0.470941 0.172102,-0.183334 0.328762,-0.388955 0.541302,-0.518368 0.83868,-0.836997 1.9603,-1.333091 2.93044,-1.938053 -0.77202,0.481061 -3.12474,1.847077 -2.31605,1.443184 0.88251,-0.440765 1.69281,-1.035028 2.53835,-1.554208 0.0327,-0.0201 0.12906,-0.0839 0.0964,-0.0636 -3.52369,2.192779 -2.99673,1.879678 -2.13379,1.299793 0.89613,-0.675597 0.31823,-0.244996 2.62083,-1.661402 0.7889,-0.485279 -3.12445,1.998983 -2.35345,1.480924 0.82404,-0.553696 1.69218,-1.027925 2.51262,-1.587872 0.74688,-0.509745 -2.90233,2.121254 -2.30014,1.421401 6.35075,-4.029989 0.47154,-0.298154 0.15912,-0.103963 -0.0189,0.01176 0.0238,-0.04197 0.0426,-0.05396 0.833,-0.53059 1.69301,-1.012163 2.50974,-1.571763 0.74982,-0.51375 -2.93899,2.105097 -2.31614,1.42008 0.0191,-0.01375 0.0446,-0.02061 0.0574,-0.04126 0.0186,-0.02994 0.0172,-0.07035 0.0321,-0.102647 0.0477,-0.103372 0.13088,-0.188192 0.19024,-0.285001 0.0713,-0.147199 -0.005,-0.371352 0.12731,-0.474252 0.0844,-0.08817 0.0936,-0.214813 0.10368,-0.335113 0.004,-0.138251 0.003,-0.276586 0.001,-0.414883 -0.004,-0.169308 0.006,-0.33932 -0.001,-0.508408 0.002,-0.166445 0.0162,-0.329165 -0.0287,-0.489185 -0.13839,-0.168064 -0.22654,-0.385481 -0.32076,-0.587281 -0.0931,-0.227609 -0.17946,-0.458703 -0.26782,-0.688877 -0.0741,-0.188179 -0.1072,-0.408733 -0.23269,-0.567983 -0.0998,-0.179578 -0.21701,-0.344754 -0.31817,-0.522434 -0.0829,-0.137 -0.17787,-0.267119 -0.26542,-0.403204 -0.0936,-0.109602 -0.1522,-0.242796 -0.25199,-0.345142 -0.0914,-0.07936 -0.14369,-0.1786 -0.23979,-0.254556 -0.10531,-0.07608 -0.12451,-0.230953 -0.16243,-0.35096 -0.0321,-0.111048 -0.05,-0.208114 -0.10814,-0.306343 -0.0594,-0.124308 -0.106,-0.239327 -0.11577,-0.381317 -0.0682,-0.185406 -0.13331,-0.372473 -0.17188,-0.568114 -0.0351,-0.134885 -0.0897,-0.327234 -0.20648,-0.402671 -0.0982,-0.105531 -0.1946,-0.21445 -0.260352,-0.346393 -0.0591,0.04408 -0.14963,-0.20452 -0.17623,-0.261432 -0.0415,-0.09019 -0.0213,-0.03918 -0.057,-0.154715 0,0 2.493482,-1.479383 2.493482,-1.479383 v 0 c 0.015,0.07059 0.004,0.03516 0.0333,0.105838 0.0887,0.190369 0.0552,0.0983 0.17232,0.254197 0.0505,0.100955 0.14191,0.171852 0.20587,0.262405 0.14175,0.166475 0.23976,0.370835 0.3045,0.586381 0.007,0.181394 0.0823,0.337196 0.14854,0.501612 0.0464,0.113013 0.009,0.239292 0.0953,0.33452 0.0504,0.09876 0.13917,0.220204 0.11406,0.330026 0.0412,0.0849 0.0383,0.178323 0.10458,0.239237 0.0892,0.09066 0.16441,0.193885 0.2513,0.286923 0.10208,0.125159 0.18372,0.265827 0.28481,0.392246 0.0781,0.144172 0.18008,0.268456 0.25728,0.411944 0.10072,0.168879 0.20507,0.333502 0.30574,0.502209 0.12326,0.192774 0.20363,0.413137 0.26397,0.637383 0.0835,0.223783 0.17463,0.441957 0.25151,0.668183 0.10474,0.214901 0.21164,0.426587 0.34874,0.619945 0.0708,0.193886 0.0946,0.367195 0.0801,0.57647 -0.007,0.168387 0.003,0.33759 0.001,0.506152 1.8e-4,0.1412 0.003,0.282352 0.006,0.423508 0.004,0.167971 -0.006,0.330477 -0.0391,0.493766 -0.0618,0.184293 0.0192,0.03395 -0.11329,0.08481 -0.0753,0.0289 -0.0298,0.253848 -0.0465,0.311568 -0.0109,0.08288 -0.0452,0.240133 -0.0847,0.308675 -0.0764,0.132732 -0.17735,0.01786 -0.14452,0.241921 -0.69957,0.871826 0.61648,-0.755551 -2.53712,1.671992 -0.74195,0.571132 1.56508,-1.006595 2.35029,-1.504947 0.0199,-0.01263 -0.034,0.0343 -0.0537,0.04736 -0.82343,0.546686 -1.78514,0.898811 -2.47506,1.631525 -0.64607,0.686141 1.55982,-0.991872 2.33973,-1.487807 -0.8675,0.508597 -1.83037,1.071905 -2.54807,1.645906 -0.72447,0.579416 3.08005,-2.020176 2.32839,-1.4831 -0.57917,0.413835 -5.815398,3.684336 -0.1569,0.125949 0.0378,-0.02376 -0.0742,0.04999 -0.11128,0.07499 -0.20345,0.173881 0.0326,-0.01577 -0.20595,0.135816 -0.83649,0.531548 -1.66578,1.076422 -2.50349,1.605706 -0.0333,0.02104 -0.14131,0.06562 -0.10813,0.04437 0.76855,-0.492254 3.08282,-1.952992 2.31563,-1.458262 -0.83594,0.539049 -1.68122,1.060821 -2.52183,1.591234 0.77146,-0.486296 1.54293,-0.972588 2.31439,-1.458882 -0.0567,0.03849 -0.12415,0.05754 -0.1781,0.100497 -0.0448,0.03564 -0.10033,0.137494 -0.15013,0.171297 -0.0289,0.01964 -0.0645,0.02418 -0.0967,0.03626 -0.10795,0.176878 -0.24106,0.179143 -0.37517,0.324239 -0.0279,0.03015 -0.0432,0.07219 -0.0714,0.102054 -0.0274,0.02912 -0.0623,0.04861 -0.0934,0.07291 -0.0174,0.02772 -0.28413,0.348929 -0.29176,0.354453 -0.0338,0.0245 -0.0868,0.008 -0.11694,0.03772 -0.035,0.03451 -0.0412,0.09237 -0.0618,0.138551 -0.2876,0.07367 -0.28363,0.445625 -0.4887,0.63721 -0.0708,0.09135 -0.15827,0.172505 -0.20599,0.281909 -0.0208,0.04777 -0.0215,0.107335 -0.0528,0.147842 -0.18506,0.239658 -0.04,-0.201534 -0.13811,0.203811 -0.16081,0.419793 0.0603,-0.08591 -0.13819,0.194947 -0.0905,0.127984 -0.0496,0.354961 -0.13781,0.490108 10e-4,0.297972 10e-4,0.596006 10e-4,0.893874 -10e-4,0.257902 0.002,0.516552 0.0221,0.773582 0.028,0.239392 0.0908,0.465192 0.18509,0.684313 0.0481,0.190054 0.14754,0.357802 0.27633,0.495988 0.0939,0.10554 0.19599,0.179639 0.30777,0.260427 0.13678,0.04896 0.27374,0.13065 0.3886,0.220178 0.1434,0.08819 0.27666,0.188703 0.42211,0.273607 0.13846,0.104748 0.28338,0.201892 0.42144,0.306229 0.25337,0.159168 0.44626,0.414225 0.72256,0.540357 0,0 -2.416,1.606931 -2.416,1.606931 z"
         inkscape:connector-curvature="0" />
      <path
         inkscape:connector-curvature="0"
         d="m 111.88798,87.168503 c -0.27257,-0.06306 -0.39555,-0.382376 -0.65951,-0.444679 -0.14512,-0.15959 -0.31962,-0.224315 -0.46904,-0.379235 -0.16313,-0.03903 -0.33007,-0.155303 -0.43991,-0.28883 -0.0323,-0.02052 -0.0666,0.02653 -0.0971,0.01389 -0.0672,-0.02789 -0.24227,-0.170729 -0.28775,-0.224568 -0.13929,-0.01349 -0.27047,-0.203468 -0.33933,-0.322477 -0.14956,-0.12025 -0.2431,-0.383806 -0.31152,-0.571905 -0.0855,-0.240829 -0.16185,-0.479642 -0.20406,-0.734613 -0.0365,-0.270724 -0.0337,-0.543528 -0.0377,-0.816218 -1.6e-4,-0.299516 0.002,-0.599267 0.004,-0.898902 0.0212,-0.277644 0.0612,-0.582771 0.20931,-0.816318 0.1025,-0.240528 0.22968,-0.462581 0.37244,-0.679169 0.19239,-0.210544 0.30979,-0.475969 0.46262,-0.717751 0.17786,-0.133668 0.31177,-0.326815 0.48358,-0.470941 0.1721,-0.183334 0.32876,-0.388955 0.5413,-0.518368 0.83868,-0.836997 1.9603,-1.333091 2.93044,-1.938053 -0.77202,0.481061 -3.12474,1.847077 -2.31605,1.443184 0.88251,-0.440765 1.69281,-1.035028 2.53835,-1.554208 0.0327,-0.0201 0.12906,-0.0839 0.0964,-0.0636 -3.52369,2.192779 -2.99673,1.879678 -2.13379,1.299793 0.89613,-0.675597 0.31823,-0.244996 2.62083,-1.661402 0.7889,-0.485279 -3.12445,1.998983 -2.35345,1.480924 0.82404,-0.553696 1.69218,-1.027925 2.51262,-1.587872 0.74688,-0.509745 -2.90233,2.121254 -2.30014,1.421401 6.35075,-4.029989 0.47154,-0.298154 0.15912,-0.103963 -0.0189,0.01176 0.0238,-0.04197 0.0426,-0.05396 0.833,-0.53059 1.69301,-1.012163 2.50974,-1.571763 0.74982,-0.51375 -2.93899,2.105097 -2.31614,1.42008 0.0191,-0.01375 0.0446,-0.02061 0.0574,-0.04126 0.0186,-0.02994 0.0172,-0.07035 0.0321,-0.102647 0.0477,-0.103372 0.13088,-0.188192 0.19024,-0.285001 0.0713,-0.147199 -0.005,-0.371352 0.12731,-0.474252 0.0844,-0.08817 0.0936,-0.214813 0.10368,-0.335113 0.004,-0.138251 0.003,-0.276586 0.001,-0.414883 -0.004,-0.169308 0.006,-0.33932 -0.001,-0.508408 0.002,-0.166445 0.0162,-0.329165 -0.0287,-0.489185 -0.13839,-0.168064 -0.22654,-0.385481 -0.32076,-0.587281 -0.0931,-0.227609 -0.17946,-0.458703 -0.26782,-0.688877 -0.0741,-0.188179 -0.1072,-0.408733 -0.23269,-0.567983 -0.0998,-0.179578 -0.21701,-0.344754 -0.31817,-0.522434 -0.0829,-0.137 -0.17787,-0.267119 -0.26542,-0.403204 -0.0936,-0.109602 -0.1522,-0.242796 -0.25199,-0.345142 -0.0914,-0.07936 -0.14369,-0.1786 -0.23979,-0.254556 -0.10531,-0.07608 -0.12451,-0.230953 -0.16243,-0.35096 -0.0321,-0.111048 -0.05,-0.208114 -0.10814,-0.306343 -0.0594,-0.124308 -0.106,-0.239327 -0.11577,-0.381317 -0.0682,-0.185406 -0.13331,-0.372473 -0.17188,-0.568114 -0.0351,-0.134885 -0.0897,-0.327234 -0.20648,-0.402671 -0.0982,-0.105531 -0.1946,-0.21445 -0.26035,-0.346393 -0.0591,0.04408 -0.14963,-0.20452 -0.17623,-0.261432 -0.0416,-0.09019 -0.0213,-0.03918 -0.057,-0.154715 0,0 2.49348,-1.479383 2.49348,-1.479383 v 0 c 0.015,0.07059 0.004,0.03516 0.0333,0.105838 0.0887,0.190369 0.0552,0.0983 0.17232,0.254197 0.0505,0.100955 0.14191,0.171852 0.20587,0.262405 0.14175,0.166475 0.23976,0.370835 0.3045,0.586381 0.007,0.181394 0.0823,0.337196 0.14854,0.501612 0.0464,0.113013 0.009,0.239292 0.0953,0.33452 0.0504,0.09876 0.13917,0.220204 0.11406,0.330026 0.0412,0.0849 0.0383,0.178323 0.10458,0.239237 0.0892,0.09066 0.16441,0.193885 0.2513,0.286923 0.10208,0.125159 0.18372,0.265827 0.28481,0.392246 0.0781,0.144172 0.18008,0.268456 0.25728,0.411944 0.10072,0.168879 0.20507,0.333502 0.30574,0.502209 0.12326,0.192774 0.20363,0.413137 0.26397,0.637383 0.0835,0.223783 0.17463,0.441957 0.25151,0.668183 0.10474,0.214901 0.21164,0.426587 0.34874,0.619945 0.0708,0.193886 0.0946,0.367195 0.0801,0.57647 -0.007,0.168387 0.003,0.33759 0.001,0.506152 1.8e-4,0.1412 0.003,0.282352 0.006,0.423508 0.004,0.167971 -0.006,0.330477 -0.0391,0.493766 -0.0618,0.184293 0.0192,0.03395 -0.11329,0.08481 -0.0753,0.0289 -0.0298,0.253848 -0.0465,0.311568 -0.0109,0.08288 -0.0452,0.240133 -0.0847,0.308675 -0.0764,0.132732 -0.17735,0.01786 -0.14452,0.241921 -0.69957,0.871826 0.61648,-0.755551 -2.53712,1.671992 -0.74195,0.571132 1.56508,-1.006595 2.35029,-1.504947 0.0199,-0.01263 -0.034,0.0343 -0.0537,0.04736 -0.82343,0.546686 -1.78514,0.898811 -2.47506,1.631525 -0.64607,0.686141 1.55982,-0.991872 2.33973,-1.487807 -0.8675,0.508597 -1.83037,1.071905 -2.54807,1.645906 -0.72447,0.579416 3.08005,-2.020176 2.32839,-1.4831 -0.57917,0.413835 -5.8154,3.684336 -0.1569,0.125949 0.0378,-0.02376 -0.0742,0.04999 -0.11128,0.07499 -0.20345,0.173881 0.0326,-0.01577 -0.20595,0.135816 -0.83649,0.531548 -1.66578,1.076422 -2.50349,1.605706 -0.0333,0.02104 -0.14131,0.06562 -0.10813,0.04437 0.76855,-0.492254 3.08282,-1.952992 2.31563,-1.458262 -0.83594,0.539049 -1.68122,1.060821 -2.52183,1.591234 0.77146,-0.486296 1.54293,-0.972588 2.31439,-1.458882 -0.0567,0.03849 -0.12415,0.05754 -0.1781,0.100497 -0.0448,0.03564 -0.10033,0.137494 -0.15013,0.171297 -0.0289,0.01964 -0.0645,0.02418 -0.0967,0.03626 -0.10795,0.176878 -0.24106,0.179143 -0.37517,0.324239 -0.0279,0.03015 -0.0432,0.07219 -0.0714,0.102054 -0.0274,0.02912 -0.0623,0.04861 -0.0934,0.07291 -0.0174,0.02772 -0.28413,0.348929 -0.29176,0.354453 -0.0338,0.0245 -0.0868,0.008 -0.11694,0.03772 -0.035,0.03451 -0.0412,0.09237 -0.0618,0.138551 -0.2876,0.07367 -0.28363,0.445625 -0.4887,0.63721 -0.0708,0.09135 -0.15827,0.172505 -0.20599,0.281909 -0.0208,0.04777 -0.0215,0.107335 -0.0528,0.147842 -0.18506,0.239658 -0.04,-0.201534 -0.13811,0.203811 -0.16081,0.419793 0.0603,-0.08591 -0.13819,0.194947 -0.0905,0.127984 -0.0496,0.354961 -0.13781,0.490108 10e-4,0.297972 10e-4,0.596006 10e-4,0.893874 -10e-4,0.257902 0.002,0.516552 0.0221,0.773582 0.028,0.239392 0.0908,0.465192 0.18509,0.684313 0.0481,0.190054 0.14754,0.357802 0.27633,0.495988 0.0939,0.10554 0.19599,0.179639 0.30777,0.260427 0.13678,0.04896 0.27374,0.13065 0.3886,0.220178 0.1434,0.08819 0.27666,0.188703 0.42211,0.273607 0.13846,0.104748 0.28338,0.201892 0.42144,0.306229 0.25337,0.159168 0.44626,0.414225 0.72256,0.540357 0,0 -2.416,1.606931 -2.416,1.606931 z"
         id="path842"
         style="fill:#fffff3;fill-opacity:1;stroke:none;stroke-width:1.9355284;stroke-miterlimit:4;stroke-dasharray:none;stroke-opacity:1" />
    </g>
  </g>
</svg>
